<svg width="443" height="214" viewBox="0 0 443 214" fill="none" xmlns="http://www.w3.org/2000/svg">
<path d="M225.5 104.5L223.603 108.022L225.5 104.5ZM191.5 131.721L187.526 132.18L191.5 131.721ZM443 33.5L411.091 0.106411L398.126 44.4374L443 33.5ZM8 213.721C8.00002 197.647 17.3675 181.027 33.2716 165.378C49.103 149.8 70.9448 135.663 94.7218 124.603C118.487 113.548 143.983 105.661 167.013 102.454C190.181 99.2282 210.239 100.823 223.603 108.022L227.397 100.978C211.808 92.5812 189.7 91.218 165.909 94.5309C141.979 97.8631 115.719 106.012 91.3476 117.349C66.9881 128.681 44.3125 143.291 27.6607 159.675C11.0817 175.988 2.68475e-05 194.545 0 213.721L8 213.721ZM223.603 108.022C235.837 114.612 239.427 122.221 239.266 128.615C239.096 135.352 234.755 142.188 228.303 146.906C221.831 151.638 214.167 153.565 208.156 151.718C202.55 149.995 197.007 144.524 195.473 131.262L187.526 132.18C189.295 147.478 196.215 156.418 205.806 159.365C214.992 162.188 225.259 159.042 233.025 153.364C240.81 147.671 247.012 138.76 247.263 128.817C247.523 118.531 241.413 108.528 227.397 100.978L223.603 108.022ZM195.473 131.262C194.217 120.395 199.92 107.42 211.913 93.928C223.799 80.556 241.338 67.2918 262.293 56.0071C304.254 33.4088 359.039 19.2028 407.793 27.3412L409.11 19.4504C358.123 10.9393 301.529 25.7899 258.499 48.9636C236.958 60.5648 218.598 74.3654 205.934 88.6133C193.377 102.741 185.88 117.941 187.526 132.18L195.473 131.262Z" fill="currentColor"/>
</svg>
